<?xml version="1.0" encoding="UTF-8" standalone="no"?>
<!DOCTYPE svg PUBLIC "-//W3C//DTD SVG 1.1//EN"
 "http://www.w3.org/Graphics/SVG/1.1/DTD/svg11.dtd">
<!-- Generated by graphviz version 14.1.2 (20260124.0452)
 -->
<!-- Title: flux_dependencies Pages: 1 -->
<svg width="1072pt" height="1532pt"
 viewBox="0.00 0.00 1072.00 1532.00" xmlns="http://www.w3.org/2000/svg" xmlns:xlink="http://www.w3.org/1999/xlink">
<g id="graph0" class="graph" transform="scale(1 1) rotate(0) translate(4 1528)">
<title>flux_dependencies</title>
<polygon fill="white" stroke="none" points="-4,4 -4,-1528 1067.75,-1528 1067.75,4 -4,4"/>
<g id="clust1" class="cluster">
<title>cluster_kustomization</title>
<polygon fill="none" stroke="#cccccc" points="9.12,-8 9.12,-245 1055.75,-245 1055.75,-8 9.12,-8"/>
<text xml:space="preserve" text-anchor="middle" x="532.44" y="-227.7" font-family="Helvetica,sans-Serif" font-size="14.00">Kustomization</text>
</g>
<g id="clust2" class="cluster">
<title>cluster_helmrelease</title>
<polygon fill="none" stroke="#cccccc" points="8,-253 8,-1516 741,-1516 741,-253 8,-253"/>
<text xml:space="preserve" text-anchor="middle" x="374.5" y="-1498.7" font-family="Helvetica,sans-Serif" font-size="14.00">HelmRelease</text>
</g>
<!-- Kustomization_flux_system_apps -->
<g id="node1" class="node">
<title>Kustomization_flux_system_apps</title>
<path fill="#f7f7f7" stroke="#3b82f6" d="M469.88,-214C469.88,-214 375.88,-214 375.88,-214 369.88,-214 363.88,-208 363.88,-202 363.88,-202 363.88,-190 363.88,-190 363.88,-184 369.88,-178 375.88,-178 375.88,-178 469.88,-178 469.88,-178 475.88,-178 481.88,-184 481.88,-190 481.88,-190 481.88,-202 481.88,-202 481.88,-208 475.88,-214 469.88,-214"/>
<text xml:space="preserve" text-anchor="middle" x="422.88" y="-190.2" font-family="Helvetica,sans-Serif" font-size="14.00">flux&#45;system/apps</text>
</g>
<!-- Kustomization_flux_system_infra -->
<g id="node6" class="node">
<title>Kustomization_flux_system_infra</title>
<path fill="#f7f7f7" stroke="#3b82f6" d="M687.62,-214C687.62,-214 596.62,-214 596.62,-214 590.62,-214 584.62,-208 584.62,-202 584.62,-202 584.62,-190 584.62,-190 584.62,-184 590.62,-178 596.62,-178 596.62,-178 687.62,-178 687.62,-178 693.62,-178 699.62,-184 699.62,-190 699.62,-190 699.62,-202 699.62,-202 699.62,-208 693.62,-214 687.62,-214"/>
<text xml:space="preserve" text-anchor="middle" x="642.12" y="-190.2" font-family="Helvetica,sans-Serif" font-size="14.00">flux&#45;system/infra</text>
</g>
<!-- Kustomization_flux_system_apps&#45;&gt;Kustomization_flux_system_infra -->
<g id="edge4" class="edge">
<title>Kustomization_flux_system_apps&#45;&gt;Kustomization_flux_system_infra</title>
<path fill="none" stroke="black" d="M482.09,-196C510.06,-196 543.74,-196 572.9,-196"/>
<polygon fill="black" stroke="black" points="572.74,-199.5 582.74,-196 572.74,-192.5 572.74,-199.5"/>
</g>
<!-- Kustomization_flux_system_cloudnative_pg_crds -->
<g id="node2" class="node">
<title>Kustomization_flux_system_cloudnative_pg_crds</title>
<path fill="#f7f7f7" stroke="#3b82f6" d="M246.5,-52C246.5,-52 64,-52 64,-52 58,-52 52,-46 52,-40 52,-40 52,-28 52,-28 52,-22 58,-16 64,-16 64,-16 246.5,-16 246.5,-16 252.5,-16 258.5,-22 258.5,-28 258.5,-28 258.5,-40 258.5,-40 258.5,-46 252.5,-52 246.5,-52"/>
<text xml:space="preserve" text-anchor="middle" x="155.25" y="-28.2" font-family="Helvetica,sans-Serif" font-size="14.00">flux&#45;system/cloudnative&#45;pg&#45;crds</text>
</g>
<!-- Kustomization_flux_system_cluster -->
<g id="node3" class="node">
<title>Kustomization_flux_system_cluster</title>
<path fill="#f7f7f7" stroke="#3b82f6" d="M1035.75,-214C1035.75,-214 931.25,-214 931.25,-214 925.25,-214 919.25,-208 919.25,-202 919.25,-202 919.25,-190 919.25,-190 919.25,-184 925.25,-178 931.25,-178 931.25,-178 1035.75,-178 1035.75,-178 1041.75,-178 1047.75,-184 1047.75,-190 1047.75,-190 1047.75,-202 1047.75,-202 1047.75,-208 1041.75,-214 1035.75,-214"/>
<text xml:space="preserve" text-anchor="middle" x="983.5" y="-190.2" font-family="Helvetica,sans-Serif" font-size="14.00">flux&#45;system/cluster</text>
</g>
<!-- Kustomization_flux_system_cnpg_plugin_barman_cloud_crds -->
<g id="node4" class="node">
<title>Kustomization_flux_system_cnpg_plugin_barman_cloud_crds</title>
<path fill="#f7f7f7" stroke="#3b82f6" d="M281.38,-106C281.38,-106 29.12,-106 29.12,-106 23.12,-106 17.12,-100 17.12,-94 17.12,-94 17.12,-82 17.12,-82 17.12,-76 23.12,-70 29.12,-70 29.12,-70 281.38,-70 281.38,-70 287.38,-70 293.38,-76 293.38,-82 293.38,-82 293.38,-94 293.38,-94 293.38,-100 287.38,-106 281.38,-106"/>
<text xml:space="preserve" text-anchor="middle" x="155.25" y="-82.2" font-family="Helvetica,sans-Serif" font-size="14.00">flux&#45;system/cnpg&#45;plugin&#45;barman&#45;cloud&#45;crds</text>
</g>
<!-- Kustomization_flux_system_crds -->
<g id="node5" class="node">
<title>Kustomization_flux_system_crds</title>
<path fill="#f7f7f7" stroke="#3b82f6" d="M871.25,-214C871.25,-214 781,-214 781,-214 775,-214 769,-208 769,-202 769,-202 769,-190 769,-190 769,-184 775,-178 781,-178 781,-178 871.25,-178 871.25,-178 877.25,-178 883.25,-184 883.25,-190 883.25,-190 883.25,-202 883.25,-202 883.25,-208 877.25,-214 871.25,-214"/>
<text xml:space="preserve" text-anchor="middle" x="826.12" y="-190.2" font-family="Helvetica,sans-Serif" font-size="14.00">flux&#45;system/crds</text>
</g>
<!-- Kustomization_flux_system_crds&#45;&gt;Kustomization_flux_system_cluster -->
<g id="edge1" class="edge">
<title>Kustomization_flux_system_crds&#45;&gt;Kustomization_flux_system_cluster</title>
<path fill="none" stroke="black" d="M883.66,-196C891.44,-196 899.53,-196 907.59,-196"/>
<polygon fill="black" stroke="black" points="907.39,-199.5 917.39,-196 907.39,-192.5 907.39,-199.5"/>
</g>
<!-- Kustomization_flux_system_infra&#45;&gt;Kustomization_flux_system_crds -->
<g id="edge2" class="edge">
<title>Kustomization_flux_system_infra&#45;&gt;Kustomization_flux_system_crds</title>
<path fill="none" stroke="black" d="M699.71,-196C717.95,-196 738.34,-196 757.3,-196"/>
<polygon fill="black" stroke="black" points="757.06,-199.5 767.06,-196 757.06,-192.5 757.06,-199.5"/>
</g>
<!-- Kustomization_flux_system_kube_prometheus_stack_crds -->
<g id="node7" class="node">
<title>Kustomization_flux_system_kube_prometheus_stack_crds</title>
<path fill="#f7f7f7" stroke="#3b82f6" d="M273.5,-160C273.5,-160 37,-160 37,-160 31,-160 25,-154 25,-148 25,-148 25,-136 25,-136 25,-130 31,-124 37,-124 37,-124 273.5,-124 273.5,-124 279.5,-124 285.5,-130 285.5,-136 285.5,-136 285.5,-148 285.5,-148 285.5,-154 279.5,-160 273.5,-160"/>
<text xml:space="preserve" text-anchor="middle" x="155.25" y="-136.2" font-family="Helvetica,sans-Serif" font-size="14.00">flux&#45;system/kube&#45;prometheus&#45;stack&#45;crds</text>
</g>
<!-- Kustomization_flux_system_networkpolicies -->
<g id="node8" class="node">
<title>Kustomization_flux_system_networkpolicies</title>
<path fill="#f7f7f7" stroke="#3b82f6" d="M233.75,-214C233.75,-214 76.75,-214 76.75,-214 70.75,-214 64.75,-208 64.75,-202 64.75,-202 64.75,-190 64.75,-190 64.75,-184 70.75,-178 76.75,-178 76.75,-178 233.75,-178 233.75,-178 239.75,-178 245.75,-184 245.75,-190 245.75,-190 245.75,-202 245.75,-202 245.75,-208 239.75,-214 233.75,-214"/>
<text xml:space="preserve" text-anchor="middle" x="155.25" y="-190.2" font-family="Helvetica,sans-Serif" font-size="14.00">flux&#45;system/networkpolicies</text>
</g>
<!-- Kustomization_flux_system_networkpolicies&#45;&gt;Kustomization_flux_system_apps -->
<g id="edge3" class="edge">
<title>Kustomization_flux_system_networkpolicies&#45;&gt;Kustomization_flux_system_apps</title>
<path fill="none" stroke="black" d="M246.18,-196C280.91,-196 320.03,-196 352.53,-196"/>
<polygon fill="black" stroke="black" points="352.21,-199.5 362.21,-196 352.21,-192.5 352.21,-199.5"/>
</g>
<!-- HelmRelease_cert_manager_cert_manager -->
<g id="node9" class="node">
<title>HelmRelease_cert_manager_cert_manager</title>
<path fill="#f7f7f7" stroke="#16a34a" d="M721,-837C721,-837 563.25,-837 563.25,-837 557.25,-837 551.25,-831 551.25,-825 551.25,-825 551.25,-813 551.25,-813 551.25,-807 557.25,-801 563.25,-801 563.25,-801 721,-801 721,-801 727,-801 733,-807 733,-813 733,-813 733,-825 733,-825 733,-831 727,-837 721,-837"/>
<text xml:space="preserve" text-anchor="middle" x="642.12" y="-813.2" font-family="Helvetica,sans-Serif" font-size="14.00">cert&#45;manager/cert&#45;manager</text>
</g>
<!-- HelmRelease_cilium_cilium -->
<g id="node10" class="node">
<title>HelmRelease_cilium_cilium</title>
<path fill="#f7f7f7" stroke="#16a34a" d="M675.25,-675C675.25,-675 609,-675 609,-675 603,-675 597,-669 597,-663 597,-663 597,-651 597,-651 597,-645 603,-639 609,-639 609,-639 675.25,-639 675.25,-639 681.25,-639 687.25,-645 687.25,-651 687.25,-651 687.25,-663 687.25,-663 687.25,-669 681.25,-675 675.25,-675"/>
<text xml:space="preserve" text-anchor="middle" x="642.12" y="-651.2" font-family="Helvetica,sans-Serif" font-size="14.00">cilium/cilium</text>
</g>
<!-- HelmRelease_cloudflare_operator_cloudflare_operator -->
<g id="node11" class="node">
<title>HelmRelease_cloudflare_operator_cloudflare_operator</title>
<path fill="#f7f7f7" stroke="#16a34a" d="M266.38,-297C266.38,-297 44.12,-297 44.12,-297 38.12,-297 32.12,-291 32.12,-285 32.12,-285 32.12,-273 32.12,-273 32.12,-267 38.12,-261 44.12,-261 44.12,-261 266.38,-261 266.38,-261 272.38,-261 278.38,-267 278.38,-273 278.38,-273 278.38,-285 278.38,-285 278.38,-291 272.38,-297 266.38,-297"/>
<text xml:space="preserve" text-anchor="middle" x="155.25" y="-273.2" font-family="Helvetica,sans-Serif" font-size="14.00">cloudflare&#45;operator/cloudflare&#45;operator</text>
</g>
<!-- HelmRelease_cnpg_system_cloudnative_pg -->
<g id="node12" class="node">
<title>HelmRelease_cnpg_system_cloudnative_pg</title>
<path fill="#f7f7f7" stroke="#16a34a" d="M503.25,-351C503.25,-351 342.5,-351 342.5,-351 336.5,-351 330.5,-345 330.5,-339 330.5,-339 330.5,-327 330.5,-327 330.5,-321 336.5,-315 342.5,-315 342.5,-315 503.25,-315 503.25,-315 509.25,-315 515.25,-321 515.25,-327 515.25,-327 515.25,-339 515.25,-339 515.25,-345 509.25,-351 503.25,-351"/>
<text xml:space="preserve" text-anchor="middle" x="422.88" y="-327.2" font-family="Helvetica,sans-Serif" font-size="14.00">cnpg&#45;system/cloudnative&#45;pg</text>
</g>
<!-- HelmRelease_cnpg_system_cnpg_plugin_barman_cloud -->
<g id="node13" class="node">
<title>HelmRelease_cnpg_system_cnpg_plugin_barman_cloud</title>
<path fill="#f7f7f7" stroke="#16a34a" d="M270.5,-351C270.5,-351 40,-351 40,-351 34,-351 28,-345 28,-339 28,-339 28,-327 28,-327 28,-321 34,-315 40,-315 40,-315 270.5,-315 270.5,-315 276.5,-315 282.5,-321 282.5,-327 282.5,-327 282.5,-339 282.5,-339 282.5,-345 276.5,-351 270.5,-351"/>
<text xml:space="preserve" text-anchor="middle" x="155.25" y="-327.2" font-family="Helvetica,sans-Serif" font-size="14.00">cnpg&#45;system/cnpg&#45;plugin&#45;barman&#45;cloud</text>
</g>
<!-- HelmRelease_cnpg_system_cnpg_plugin_barman_cloud&#45;&gt;HelmRelease_cnpg_system_cloudnative_pg -->
<g id="edge7" class="edge">
<title>HelmRelease_cnpg_system_cnpg_plugin_barman_cloud&#45;&gt;HelmRelease_cnpg_system_cloudnative_pg</title>
<path fill="none" stroke="black" d="M282.84,-333C294.99,-333 307.21,-333 319.09,-333"/>
<polygon fill="black" stroke="black" points="318.86,-336.5 328.86,-333 318.86,-329.5 318.86,-336.5"/>
</g>
<!-- HelmRelease_falco_falco -->
<g id="node14" class="node">
<title>HelmRelease_falco_falco</title>
<path fill="#f7f7f7" stroke="#16a34a" d="M449.25,-567C449.25,-567 396.5,-567 396.5,-567 390.5,-567 384.5,-561 384.5,-555 384.5,-555 384.5,-543 384.5,-543 384.5,-537 390.5,-531 396.5,-531 396.5,-531 449.25,-531 449.25,-531 455.25,-531 461.25,-537 461.25,-543 461.25,-543 461.25,-555 461.25,-555 461.25,-561 455.25,-567 449.25,-567"/>
<text xml:space="preserve" text-anchor="middle" x="422.88" y="-543.2" font-family="Helvetica,sans-Serif" font-size="14.00">falco/falco</text>
</g>
<!-- HelmRelease_falco_falco&#45;&gt;HelmRelease_cilium_cilium -->
<g id="edge13" class="edge">
<title>HelmRelease_falco_falco&#45;&gt;HelmRelease_cilium_cilium</title>
<path fill="none" stroke="black" d="M461.65,-557.58C478.46,-562.04 498.26,-568.22 515.25,-576 548.62,-591.29 583.49,-614.36 608.04,-631.98"/>
<polygon fill="black" stroke="black" points="605.88,-634.73 616.02,-637.79 609.99,-629.07 605.88,-634.73"/>
</g>
<!-- HelmRelease_flux_system_capacitor_next -->
<g id="node15" class="node">
<title>HelmRelease_flux_system_capacitor_next</title>
<path fill="#f7f7f7" stroke="#16a34a" d="M230,-945C230,-945 80.5,-945 80.5,-945 74.5,-945 68.5,-939 68.5,-933 68.5,-933 68.5,-921 68.5,-921 68.5,-915 74.5,-909 80.5,-909 80.5,-909 230,-909 230,-909 236,-909 242,-915 242,-921 242,-921 242,-933 242,-933 242,-939 236,-945 230,-945"/>
<text xml:space="preserve" text-anchor="middle" x="155.25" y="-921.2" font-family="Helvetica,sans-Serif" font-size="14.00">flux&#45;system/capacitor&#45;next</text>
</g>
<!-- HelmRelease_network_envoy_gateway -->
<g id="node24" class="node">
<title>HelmRelease_network_envoy_gateway</title>
<path fill="#f7f7f7" stroke="#16a34a" d="M489.75,-837C489.75,-837 356,-837 356,-837 350,-837 344,-831 344,-825 344,-825 344,-813 344,-813 344,-807 350,-801 356,-801 356,-801 489.75,-801 489.75,-801 495.75,-801 501.75,-807 501.75,-813 501.75,-813 501.75,-825 501.75,-825 501.75,-831 495.75,-837 489.75,-837"/>
<text xml:space="preserve" text-anchor="middle" x="422.88" y="-813.2" font-family="Helvetica,sans-Serif" font-size="14.00">network/envoy&#45;gateway</text>
</g>
<!-- HelmRelease_flux_system_capacitor_next&#45;&gt;HelmRelease_network_envoy_gateway -->
<g id="edge12" class="edge">
<title>HelmRelease_flux_system_capacitor_next&#45;&gt;HelmRelease_network_envoy_gateway</title>
<path fill="none" stroke="black" d="M242.5,-915.32C260.06,-911.52 278.15,-906.53 294.5,-900 329.46,-886.05 365.3,-862.25 390.01,-844.05"/>
<polygon fill="black" stroke="black" points="391.8,-847.08 397.7,-838.29 387.6,-841.48 391.8,-847.08"/>
</g>
<!-- HelmRelease_gitlab_gitlab -->
<g id="node16" class="node">
<title>HelmRelease_gitlab_gitlab</title>
<path fill="#f7f7f7" stroke="#16a34a" d="M185.38,-459C185.38,-459 125.12,-459 125.12,-459 119.12,-459 113.12,-453 113.12,-447 113.12,-447 113.12,-435 113.12,-435 113.12,-429 119.12,-423 125.12,-423 125.12,-423 185.38,-423 185.38,-423 191.38,-423 197.38,-429 197.38,-435 197.38,-435 197.38,-447 197.38,-447 197.38,-453 191.38,-459 185.38,-459"/>
<text xml:space="preserve" text-anchor="middle" x="155.25" y="-435.2" font-family="Helvetica,sans-Serif" font-size="14.00">gitlab/gitlab</text>
</g>
<!-- HelmRelease_gitlab_gitlab_garage -->
<g id="node17" class="node">
<title>HelmRelease_gitlab_gitlab_garage</title>
<path fill="#f7f7f7" stroke="#16a34a" d="M208.62,-513C208.62,-513 101.88,-513 101.88,-513 95.88,-513 89.88,-507 89.88,-501 89.88,-501 89.88,-489 89.88,-489 89.88,-483 95.88,-477 101.88,-477 101.88,-477 208.62,-477 208.62,-477 214.62,-477 220.62,-483 220.62,-489 220.62,-489 220.62,-501 220.62,-501 220.62,-507 214.62,-513 208.62,-513"/>
<text xml:space="preserve" text-anchor="middle" x="155.25" y="-489.2" font-family="Helvetica,sans-Serif" font-size="14.00">gitlab/gitlab&#45;garage</text>
</g>
<!-- HelmRelease_gitlab_gitlab_runner -->
<g id="node18" class="node">
<title>HelmRelease_gitlab_gitlab_runner</title>
<path fill="#f7f7f7" stroke="#16a34a" d="M207.12,-567C207.12,-567 103.38,-567 103.38,-567 97.38,-567 91.38,-561 91.38,-555 91.38,-555 91.38,-543 91.38,-543 91.38,-537 97.38,-531 103.38,-531 103.38,-531 207.12,-531 207.12,-531 213.12,-531 219.12,-537 219.12,-543 219.12,-543 219.12,-555 219.12,-555 219.12,-561 213.12,-567 207.12,-567"/>
<text xml:space="preserve" text-anchor="middle" x="155.25" y="-543.2" font-family="Helvetica,sans-Serif" font-size="14.00">gitlab/gitlab&#45;runner</text>
</g>
<!-- HelmRelease_gitlab_gitlab_valkey -->
<g id="node19" class="node">
<title>HelmRelease_gitlab_gitlab_valkey</title>
<path fill="#f7f7f7" stroke="#16a34a" d="M206.75,-621C206.75,-621 103.75,-621 103.75,-621 97.75,-621 91.75,-615 91.75,-609 91.75,-609 91.75,-597 91.75,-597 91.75,-591 97.75,-585 103.75,-585 103.75,-585 206.75,-585 206.75,-585 212.75,-585 218.75,-591 218.75,-597 218.75,-597 218.75,-609 218.75,-609 218.75,-615 212.75,-621 206.75,-621"/>
<text xml:space="preserve" text-anchor="middle" x="155.25" y="-597.2" font-family="Helvetica,sans-Serif" font-size="14.00">gitlab/gitlab&#45;valkey</text>
</g>
<!-- HelmRelease_k8up_k8up -->
<g id="node20" class="node">
<title>HelmRelease_k8up_k8up</title>
<path fill="#f7f7f7" stroke="#16a34a" d="M182.38,-675C182.38,-675 128.12,-675 128.12,-675 122.12,-675 116.12,-669 116.12,-663 116.12,-663 116.12,-651 116.12,-651 116.12,-645 122.12,-639 128.12,-639 128.12,-639 182.38,-639 182.38,-639 188.38,-639 194.38,-645 194.38,-651 194.38,-651 194.38,-663 194.38,-663 194.38,-669 188.38,-675 182.38,-675"/>
<text xml:space="preserve" text-anchor="middle" x="155.25" y="-651.2" font-family="Helvetica,sans-Serif" font-size="14.00">k8up/k8up</text>
</g>
<!-- HelmRelease_kube_system_coredns -->
<g id="node21" class="node">
<title>HelmRelease_kube_system_coredns</title>
<path fill="#f7f7f7" stroke="#16a34a" d="M215.75,-729C215.75,-729 94.75,-729 94.75,-729 88.75,-729 82.75,-723 82.75,-717 82.75,-717 82.75,-705 82.75,-705 82.75,-699 88.75,-693 94.75,-693 94.75,-693 215.75,-693 215.75,-693 221.75,-693 227.75,-699 227.75,-705 227.75,-705 227.75,-717 227.75,-717 227.75,-723 221.75,-729 215.75,-729"/>
<text xml:space="preserve" text-anchor="middle" x="155.25" y="-705.2" font-family="Helvetica,sans-Serif" font-size="14.00">kube&#45;system/coredns</text>
</g>
<!-- HelmRelease_kube_system_metrics_server -->
<g id="node22" class="node">
<title>HelmRelease_kube_system_metrics_server</title>
<path fill="#f7f7f7" stroke="#16a34a" d="M234.88,-783C234.88,-783 75.62,-783 75.62,-783 69.62,-783 63.62,-777 63.62,-771 63.62,-771 63.62,-759 63.62,-759 63.62,-753 69.62,-747 75.62,-747 75.62,-747 234.88,-747 234.88,-747 240.88,-747 246.88,-753 246.88,-759 246.88,-759 246.88,-771 246.88,-771 246.88,-777 240.88,-783 234.88,-783"/>
<text xml:space="preserve" text-anchor="middle" x="155.25" y="-759.2" font-family="Helvetica,sans-Serif" font-size="14.00">kube&#45;system/metrics&#45;server</text>
</g>
<!-- HelmRelease_minio_minio -->
<g id="node23" class="node">
<title>HelmRelease_minio_minio</title>
<path fill="#f7f7f7" stroke="#16a34a" d="M186.12,-405C186.12,-405 124.38,-405 124.38,-405 118.38,-405 112.38,-399 112.38,-393 112.38,-393 112.38,-381 112.38,-381 112.38,-375 118.38,-369 124.38,-369 124.38,-369 186.12,-369 186.12,-369 192.12,-369 198.12,-375 198.12,-381 198.12,-381 198.12,-393 198.12,-393 198.12,-399 192.12,-405 186.12,-405"/>
<text xml:space="preserve" text-anchor="middle" x="155.25" y="-381.2" font-family="Helvetica,sans-Serif" font-size="14.00">minio/minio</text>
</g>
<!-- HelmRelease_minio_minio&#45;&gt;HelmRelease_network_envoy_gateway -->
<g id="edge11" class="edge">
<title>HelmRelease_minio_minio&#45;&gt;HelmRelease_network_envoy_gateway</title>
<path fill="none" stroke="black" d="M198.38,-383.49C229.27,-383.37 269.95,-388.76 294.5,-414 362.36,-483.77 301.02,-537.25 330.5,-630 349.54,-689.91 384.4,-754.88 405.12,-790.9"/>
<polygon fill="black" stroke="black" points="402,-792.5 410.05,-799.38 408.05,-788.98 402,-792.5"/>
</g>
<!-- HelmRelease_storage_system_backup -->
<g id="node34" class="node">
<title>HelmRelease_storage_system_backup</title>
<path fill="#f7f7f7" stroke="#16a34a" d="M489,-621C489,-621 356.75,-621 356.75,-621 350.75,-621 344.75,-615 344.75,-609 344.75,-609 344.75,-597 344.75,-597 344.75,-591 350.75,-585 356.75,-585 356.75,-585 489,-585 489,-585 495,-585 501,-591 501,-597 501,-597 501,-609 501,-609 501,-615 495,-621 489,-621"/>
<text xml:space="preserve" text-anchor="middle" x="422.88" y="-597.2" font-family="Helvetica,sans-Serif" font-size="14.00">storage&#45;system/backup</text>
</g>
<!-- HelmRelease_minio_minio&#45;&gt;HelmRelease_storage_system_backup -->
<g id="edge10" class="edge">
<title>HelmRelease_minio_minio&#45;&gt;HelmRelease_storage_system_backup</title>
<path fill="none" stroke="black" d="M198.32,-383.87C228.97,-383.99 269.37,-389.51 294.5,-414 347.32,-465.48 280.17,-522.09 330.5,-576 332.02,-577.63 333.64,-579.17 335.34,-580.61"/>
<polygon fill="black" stroke="black" points="333.01,-583.25 343.18,-586.22 337.08,-577.56 333.01,-583.25"/>
</g>
<!-- HelmRelease_network_envoy_gateway&#45;&gt;HelmRelease_cert_manager_cert_manager -->
<g id="edge6" class="edge">
<title>HelmRelease_network_envoy_gateway&#45;&gt;HelmRelease_cert_manager_cert_manager</title>
<path fill="none" stroke="black" d="M502,-819C514.11,-819 526.77,-819 539.3,-819"/>
<polygon fill="black" stroke="black" points="539.25,-822.5 549.25,-819 539.25,-815.5 539.25,-822.5"/>
</g>
<!-- HelmRelease_network_envoy_gateway&#45;&gt;HelmRelease_cilium_cilium -->
<g id="edge5" class="edge">
<title>HelmRelease_network_envoy_gateway&#45;&gt;HelmRelease_cilium_cilium</title>
<path fill="none" stroke="black" d="M448.37,-800.73C487.25,-771.74 563.15,-715.14 607.22,-682.28"/>
<polygon fill="black" stroke="black" points="609.24,-685.14 615.17,-676.36 605.06,-679.53 609.24,-685.14"/>
</g>
<!-- HelmRelease_nextcloud_nextcloud_valkey -->
<g id="node25" class="node">
<title>HelmRelease_nextcloud_nextcloud_valkey</title>
<path fill="#f7f7f7" stroke="#16a34a" d="M232.25,-891C232.25,-891 78.25,-891 78.25,-891 72.25,-891 66.25,-885 66.25,-879 66.25,-879 66.25,-867 66.25,-867 66.25,-861 72.25,-855 78.25,-855 78.25,-855 232.25,-855 232.25,-855 238.25,-855 244.25,-861 244.25,-867 244.25,-867 244.25,-879 244.25,-879 244.25,-885 238.25,-891 232.25,-891"/>
<text xml:space="preserve" text-anchor="middle" x="155.25" y="-867.2" font-family="Helvetica,sans-Serif" font-size="14.00">nextcloud/nextcloud&#45;valkey</text>
</g>
<!-- HelmRelease_observability_kube_prometheus_stack -->
<g id="node26" class="node">
<title>HelmRelease_observability_kube_prometheus_stack</title>
<path fill="#f7f7f7" stroke="#16a34a" d="M261.5,-1107C261.5,-1107 49,-1107 49,-1107 43,-1107 37,-1101 37,-1095 37,-1095 37,-1083 37,-1083 37,-1077 43,-1071 49,-1071 49,-1071 261.5,-1071 261.5,-1071 267.5,-1071 273.5,-1077 273.5,-1083 273.5,-1083 273.5,-1095 273.5,-1095 273.5,-1101 267.5,-1107 261.5,-1107"/>
<text xml:space="preserve" text-anchor="middle" x="155.25" y="-1083.2" font-family="Helvetica,sans-Serif" font-size="14.00">observability/kube&#45;prometheus&#45;stack</text>
</g>
<!-- HelmRelease_observability_kube_prometheus_stack&#45;&gt;HelmRelease_network_envoy_gateway -->
<g id="edge8" class="edge">
<title>HelmRelease_observability_kube_prometheus_stack&#45;&gt;HelmRelease_network_envoy_gateway</title>
<path fill="none" stroke="black" d="M273.81,-1074.05C281.14,-1070.73 288.13,-1066.75 294.5,-1062 366.96,-1008 401.98,-900.58 415.25,-848.57"/>
<polygon fill="black" stroke="black" points="418.63,-849.49 417.61,-838.95 411.83,-847.83 418.63,-849.49"/>
</g>
<!-- HelmRelease_observability_loki -->
<g id="node27" class="node">
<title>HelmRelease_observability_loki</title>
<path fill="#f7f7f7" stroke="#16a34a" d="M200.75,-999C200.75,-999 109.75,-999 109.75,-999 103.75,-999 97.75,-993 97.75,-987 97.75,-987 97.75,-975 97.75,-975 97.75,-969 103.75,-963 109.75,-963 109.75,-963 200.75,-963 200.75,-963 206.75,-963 212.75,-969 212.75,-975 212.75,-975 212.75,-987 212.75,-987 212.75,-993 206.75,-999 200.75,-999"/>
<text xml:space="preserve" text-anchor="middle" x="155.25" y="-975.2" font-family="Helvetica,sans-Serif" font-size="14.00">observability/loki</text>
</g>
<!-- HelmRelease_observability_prometheus_blackbox_exporter -->
<g id="node28" class="node">
<title>HelmRelease_observability_prometheus_blackbox_exporter</title>
<path fill="#f7f7f7" stroke="#16a34a" d="M282.5,-1053C282.5,-1053 28,-1053 28,-1053 22,-1053 16,-1047 16,-1041 16,-1041 16,-1029 16,-1029 16,-1023 22,-1017 28,-1017 28,-1017 282.5,-1017 282.5,-1017 288.5,-1017 294.5,-1023 294.5,-1029 294.5,-1029 294.5,-1041 294.5,-1041 294.5,-1047 288.5,-1053 282.5,-1053"/>
<text xml:space="preserve" text-anchor="middle" x="155.25" y="-1029.2" font-family="Helvetica,sans-Serif" font-size="14.00">observability/prometheus&#45;blackbox&#45;exporter</text>
</g>
<!-- HelmRelease_observability_prometheus_pushgateway -->
<g id="node29" class="node">
<title>HelmRelease_observability_prometheus_pushgateway</title>
<path fill="#f7f7f7" stroke="#16a34a" d="M268.62,-837C268.62,-837 41.88,-837 41.88,-837 35.88,-837 29.88,-831 29.88,-825 29.88,-825 29.88,-813 29.88,-813 29.88,-807 35.88,-801 41.88,-801 41.88,-801 268.62,-801 268.62,-801 274.62,-801 280.62,-807 280.62,-813 280.62,-813 280.62,-825 280.62,-825 280.62,-831 274.62,-837 268.62,-837"/>
<text xml:space="preserve" text-anchor="middle" x="155.25" y="-813.2" font-family="Helvetica,sans-Serif" font-size="14.00">observability/prometheus&#45;pushgateway</text>
</g>
<!-- HelmRelease_observability_prometheus_pushgateway&#45;&gt;HelmRelease_network_envoy_gateway -->
<g id="edge9" class="edge">
<title>HelmRelease_observability_prometheus_pushgateway&#45;&gt;HelmRelease_network_envoy_gateway</title>
<path fill="none" stroke="black" d="M280.9,-819C298.31,-819 315.91,-819 332.5,-819"/>
<polygon fill="black" stroke="black" points="332.29,-822.5 342.29,-819 332.29,-815.5 332.29,-822.5"/>
</g>
<!-- HelmRelease_observability_prometheus_smartctl_exporter -->
<g id="node30" class="node">
<title>HelmRelease_observability_prometheus_smartctl_exporter</title>
<path fill="#f7f7f7" stroke="#16a34a" d="M279.88,-1161C279.88,-1161 30.62,-1161 30.62,-1161 24.62,-1161 18.62,-1155 18.62,-1149 18.62,-1149 18.62,-1137 18.62,-1137 18.62,-1131 24.62,-1125 30.62,-1125 30.62,-1125 279.88,-1125 279.88,-1125 285.88,-1125 291.88,-1131 291.88,-1137 291.88,-1137 291.88,-1149 291.88,-1149 291.88,-1155 285.88,-1161 279.88,-1161"/>
<text xml:space="preserve" text-anchor="middle" x="155.25" y="-1137.2" font-family="Helvetica,sans-Serif" font-size="14.00">observability/prometheus&#45;smartctl&#45;exporter</text>
</g>
<!-- HelmRelease_observability_promtail -->
<g id="node31" class="node">
<title>HelmRelease_observability_promtail</title>
<path fill="#f7f7f7" stroke="#16a34a" d="M215,-1215C215,-1215 95.5,-1215 95.5,-1215 89.5,-1215 83.5,-1209 83.5,-1203 83.5,-1203 83.5,-1191 83.5,-1191 83.5,-1185 89.5,-1179 95.5,-1179 95.5,-1179 215,-1179 215,-1179 221,-1179 227,-1185 227,-1191 227,-1191 227,-1203 227,-1203 227,-1209 221,-1215 215,-1215"/>
<text xml:space="preserve" text-anchor="middle" x="155.25" y="-1191.2" font-family="Helvetica,sans-Serif" font-size="14.00">observability/promtail</text>
</g>
<!-- HelmRelease_reloader_reloader -->
<g id="node32" class="node">
<title>HelmRelease_reloader_reloader</title>
<path fill="#f7f7f7" stroke="#16a34a" d="M202.62,-1269C202.62,-1269 107.88,-1269 107.88,-1269 101.88,-1269 95.88,-1263 95.88,-1257 95.88,-1257 95.88,-1245 95.88,-1245 95.88,-1239 101.88,-1233 107.88,-1233 107.88,-1233 202.62,-1233 202.62,-1233 208.62,-1233 214.62,-1239 214.62,-1245 214.62,-1245 214.62,-1257 214.62,-1257 214.62,-1263 208.62,-1269 202.62,-1269"/>
<text xml:space="preserve" text-anchor="middle" x="155.25" y="-1245.2" font-family="Helvetica,sans-Serif" font-size="14.00">reloader/reloader</text>
</g>
<!-- HelmRelease_renovate_renovate_valkey -->
<g id="node33" class="node">
<title>HelmRelease_renovate_renovate_valkey</title>
<path fill="#f7f7f7" stroke="#16a34a" d="M227,-1323C227,-1323 83.5,-1323 83.5,-1323 77.5,-1323 71.5,-1317 71.5,-1311 71.5,-1311 71.5,-1299 71.5,-1299 71.5,-1293 77.5,-1287 83.5,-1287 83.5,-1287 227,-1287 227,-1287 233,-1287 239,-1293 239,-1299 239,-1299 239,-1311 239,-1311 239,-1317 233,-1323 227,-1323"/>
<text xml:space="preserve" text-anchor="middle" x="155.25" y="-1299.2" font-family="Helvetica,sans-Serif" font-size="14.00">renovate/renovate&#45;valkey</text>
</g>
<!-- HelmRelease_storage_system_hdd -->
<g id="node35" class="node">
<title>HelmRelease_storage_system_hdd</title>
<path fill="#f7f7f7" stroke="#16a34a" d="M210.88,-1377C210.88,-1377 99.62,-1377 99.62,-1377 93.62,-1377 87.62,-1371 87.62,-1365 87.62,-1365 87.62,-1353 87.62,-1353 87.62,-1347 93.62,-1341 99.62,-1341 99.62,-1341 210.88,-1341 210.88,-1341 216.88,-1341 222.88,-1347 222.88,-1353 222.88,-1353 222.88,-1365 222.88,-1365 222.88,-1371 216.88,-1377 210.88,-1377"/>
<text xml:space="preserve" text-anchor="middle" x="155.25" y="-1353.2" font-family="Helvetica,sans-Serif" font-size="14.00">storage&#45;system/hdd</text>
</g>
<!-- HelmRelease_storage_system_nvme -->
<g id="node36" class="node">
<title>HelmRelease_storage_system_nvme</title>
<path fill="#f7f7f7" stroke="#16a34a" d="M216.5,-1431C216.5,-1431 94,-1431 94,-1431 88,-1431 82,-1425 82,-1419 82,-1419 82,-1407 82,-1407 82,-1401 88,-1395 94,-1395 94,-1395 216.5,-1395 216.5,-1395 222.5,-1395 228.5,-1401 228.5,-1407 228.5,-1407 228.5,-1419 228.5,-1419 228.5,-1425 222.5,-1431 216.5,-1431"/>
<text xml:space="preserve" text-anchor="middle" x="155.25" y="-1407.2" font-family="Helvetica,sans-Serif" font-size="14.00">storage&#45;system/nvme</text>
</g>
<!-- HelmRelease_storage_system_ssd -->
<g id="node37" class="node">
<title>HelmRelease_storage_system_ssd</title>
<path fill="#f7f7f7" stroke="#16a34a" d="M210.12,-1485C210.12,-1485 100.38,-1485 100.38,-1485 94.38,-1485 88.38,-1479 88.38,-1473 88.38,-1473 88.38,-1461 88.38,-1461 88.38,-1455 94.38,-1449 100.38,-1449 100.38,-1449 210.12,-1449 210.12,-1449 216.12,-1449 222.12,-1455 222.12,-1461 222.12,-1461 222.12,-1473 222.12,-1473 222.12,-1479 216.12,-1485 210.12,-1485"/>
<text xml:space="preserve" text-anchor="middle" x="155.25" y="-1461.2" font-family="Helvetica,sans-Serif" font-size="14.00">storage&#45;system/ssd</text>
</g>
</g>
</svg>
