<?xml version="1.0" encoding="UTF-8"?>
<svg width="198.8" height="50" version="1.1" viewBox="0 0 52.61 13.23" xmlns="http://www.w3.org/2000/svg">
 <path d="m7.629 2.067e-4c-0.8791-0.001988-1.745 0.01163-2.534 0.03999-1.154 0.02967-2.115 0.0739-2.611 0.1279-0.8799 0.09596-1.45 0.4658-1.812 1.033-0.3867 0.4609-0.6014 1.073-0.6307 1.83-0.02969 0.7666-0.04005 1.744-0.04177 2.731-9.938e-4 0.1302-9.938e-4 0.2611-7.454e-4 0.3926 0.001491 2.11 0.04232 4.146 0.04232 4.146 0 1.529 1.05 2.596 2.333 2.76 1.014 0.13 3.294 0.1763 5.532 0.1669 0.00149 5e-6 0.00296 0 0.00435 0 0.9247 0.0036 1.84-0.0092 2.668-0.03903 1.154-0.02967 2.115-0.0739 2.611-0.1279 0.8799-0.09596 1.45-0.4658 1.812-1.033 0.3867-0.4609 0.6014-1.073 0.6307-1.83 0.02969-0.7666 0.04005-1.744 0.04177-2.731 9.94e-4 -0.1302 9.94e-4 -0.2611 7.46e-4 -0.3926-0.0015-2.11-0.04232-4.146-0.04232-4.146 0-1.529-1.05-2.596-2.333-2.76-1.014-0.13-3.294-0.1763-5.532-0.1669-0.00149-7.46e-6 -0.00293 4.97e-6 -0.00435 0-0.0449 0-0.08976-7.454e-4 -0.1346-9.938e-4z" fill="#09311b" stroke-width="0"/>
 <g fill="#333" stroke-width=".07012px">
  <path d="m21.5 8.438v-1.816h-1.703v1.816h-0.876v-4.237h0.876v1.717h1.703v-1.717h0.8731v4.237z"/>
  <path d="m25.55 7.923q-0.1513 0.2154-0.4598 0.3929-0.3085 0.1775-0.7683 0.1775-0.7334 0-1.147-0.4424-0.4133-0.4453-0.4162-1.074v-0.1222q0-0.713 0.3958-1.17 0.3987-0.4569 1.074-0.4569 0.6781 0 1.033 0.4249 0.355 0.4249 0.355 1.123v0.358h-2.005q0.04365 0.3056 0.2416 0.4948 0.1979 0.1863 0.5209 0.1863 0.4802 0 0.7596-0.3521zm-1.327-2.017q-0.2677 0-0.4133 0.1804-0.1455 0.1804-0.1892 0.4715h1.17v-0.06402q-0.005821-0.2532-0.1426-0.4191-0.1339-0.1688-0.4249-0.1688z"/>
  <path d="m27.71 8.438q-0.05239-0.1106-0.0844-0.2823-0.3056 0.3405-0.7945 0.3405-0.4511 0-0.7596-0.2648-0.3085-0.2677-0.3085-0.6781 0-0.4948 0.3667-0.7654 0.3667-0.2736 1.086-0.2736h0.3754v-0.1833q0-0.2183-0.1135-0.3463-0.1106-0.131-0.3521-0.131-0.4511 0-0.4511 0.3783h-0.8411q0-0.4104 0.3638-0.7043 0.3638-0.2969 0.9749-0.2969 0.5442 0 0.9022 0.2765 0.3609 0.2765 0.3609 0.8294v1.403q0.0058 0.4191 0.1251 0.649v0.04948zm-0.6956-0.585q0.2124 0 0.3609-0.09313 0.1513-0.09604 0.2154-0.2095v-0.5471h-0.3434q-0.3347 0-0.4889 0.1426-0.1542 0.1397-0.1542 0.3463 0 0.1572 0.1077 0.259 0.1106 0.1019 0.3027 0.1019z"/>
  <path d="m29.76 3.966v4.47h-0.844v-4.47z"/>
  <path d="m31.82 8.415q-0.2357 0.07858-0.5064 0.07858-0.4133 0-0.6577-0.2154-0.2445-0.2154-0.2445-0.7159v-1.662h-0.4627v-0.6141h0.4627v-0.777h0.8411v0.777h0.5355v0.6141h-0.5355v1.574q0 0.1979 0.08149 0.2619 0.08149 0.06402 0.2415 0.06402 0.1281 0 0.2445-0.02328z"/>
  <path d="m33.4 5.911q-0.3667 0-0.5326 0.2823v2.244h-0.8411v-4.47h0.8411v1.662q0.3289-0.3987 0.8411-0.3987 0.4627 0 0.7479 0.2736 0.2881 0.2736 0.291 0.9342v1.999h-0.844v-1.991q0-0.3056-0.131-0.4191-0.131-0.1164-0.3725-0.1164z"/>
  <path d="m36.48 7.817q0.2299 0 0.3783-0.1251 0.1484-0.1281 0.1513-0.3434h0.7916q-0.0058 0.5006-0.3842 0.8236-0.3754 0.323-0.9225 0.323-0.7305 0-1.094-0.4598-0.3609-0.4627-0.3609-1.132v-0.08149q0-0.6665 0.3609-1.129 0.3609-0.4627 1.091-0.4627 0.5792 0 0.94 0.3318 0.3638 0.3318 0.3696 0.8993h-0.7916q-0.002907-0.2299-0.1397-0.39-0.1368-0.163-0.3929-0.163-0.3667 0-0.4802 0.2765-0.1135 0.2736-0.1135 0.7188 0 0.3638 0.1106 0.6402 0.1135 0.2736 0.486 0.2736z"/>
  <path d="m39.43 5.911q-0.3667 0-0.5326 0.2823v2.244h-0.8411v-4.47h0.8411v1.662q0.3289-0.3987 0.8411-0.3987 0.4627 0 0.7479 0.2736 0.2881 0.2736 0.291 0.9342v1.999h-0.844v-1.991q0-0.3056-0.131-0.4191-0.131-0.1164-0.3725-0.1164z"/>
  <path d="m43.88 7.923q-0.1513 0.2154-0.4598 0.3929-0.3085 0.1775-0.7683 0.1775-0.7334 0-1.147-0.4424-0.4133-0.4453-0.4162-1.074v-0.1222q0-0.713 0.3958-1.17 0.3987-0.4569 1.074-0.4569 0.6781 0 1.033 0.4249 0.355 0.4249 0.355 1.123v0.358h-2.005q0.04365 0.3056 0.2416 0.4948 0.1979 0.1863 0.5209 0.1863 0.4802 0 0.7596-0.3521zm-1.327-2.017q-0.2677 0-0.4133 0.1804-0.1455 0.1804-0.1892 0.4715h1.17v-0.06402q-0.005813-0.2532-0.1426-0.4191-0.1339-0.1688-0.4249-0.1688z"/>
  <path d="m45.52 7.817q0.2299 0 0.3783-0.1251 0.1484-0.1281 0.1513-0.3434h0.7916q-0.0058 0.5006-0.3842 0.8236-0.3754 0.323-0.9225 0.323-0.7305 0-1.094-0.4598-0.3609-0.4627-0.3609-1.132v-0.08149q0-0.6665 0.3609-1.129 0.3609-0.4627 1.091-0.4627 0.5792 0 0.94 0.3318 0.3638 0.3318 0.3696 0.8993h-0.7916q-0.002907-0.2299-0.1397-0.39-0.1368-0.163-0.3929-0.163-0.3667 0-0.4802 0.2765-0.1135 0.2736-0.1135 0.7188 0 0.3638 0.1106 0.6402 0.1135 0.2736 0.486 0.2736z"/>
  <path d="m49.06 8.438-0.809-1.263-0.2998 0.2998v0.9633h-0.8411v-4.473h0.8411v2.477l0.163-0.2095 0.8032-0.9429h1.01l-1.135 1.31 1.237 1.839z"/>
  <path d="m51.79 7.563q0-0.1339-0.1251-0.2241-0.1222-0.09313-0.5297-0.1804-0.486-0.1048-0.7974-0.326-0.3114-0.2212-0.3114-0.6257 0-0.3929 0.3318-0.6839 0.3347-0.2939 0.9225-0.2939 0.6141 0 0.9662 0.2881 0.3521 0.2881 0.3521 0.7276h-0.8411q0-0.1804-0.1164-0.2998-0.1164-0.1193-0.3638-0.1193-0.2095 0-0.3289 0.09895-0.1164 0.09604-0.1164 0.2416 0 0.1339 0.1251 0.2212 0.1251 0.08731 0.4627 0.1542 0.5122 0.1019 0.8498 0.3114 0.3376 0.2095 0.3376 0.6781 0 0.4162-0.358 0.6897-0.358 0.2736-0.9662 0.2736-0.6606 0-1.01-0.3376-0.3492-0.3405-0.3492-0.7246h0.8003q0.01165 0.2474 0.1804 0.355 0.1717 0.1077 0.3958 0.1077 0.4889 0 0.4889-0.3318z"/>
 </g>
 <path d="m8.025 1.506-1.369-0.01287-1.006 7.033-0.1454-0.9775-2.72-5.47e-5 -0.1195 0.874 2.075 0.0037 0.1729 1.263 1.504 0.00288 0.9272-6.646 0.1583 1.129 0.8898-7.454e-4z" fill="#fff" stroke-width=".2485"/>
 <path d="m8.63 5.889-0.8884 0.00174 0.7848 5.641 1.183-0.0015 0.4371-3.105 2.038 0.00149 0.1255-0.8743-2.932 0.00174-0.2626 1.856z" fill="#22bc66" stroke-width=".2485"/>
</svg>
